<?xml version="1.0" encoding="utf-8"?>
<!-- Generator: Adobe Illustrator 17.0.0, SVG Export Plug-In . SVG Version: 6.00 Build 0)  -->
<!DOCTYPE svg PUBLIC "-//W3C//DTD SVG 1.1//EN" "http://www.w3.org/Graphics/SVG/1.1/DTD/svg11.dtd">
<svg version="1.1" id="Layer_1" xmlns="http://www.w3.org/2000/svg" xmlns:xlink="http://www.w3.org/1999/xlink" x="0px" y="0px"
	 width="200px" height="200px" viewBox="0 0 200 200" enable-background="new 0 0 200 200" xml:space="preserve">
<g>
	<g>
		<path fill="#FFFFFF" d="M188.758,84.316l0.312,0.068H55.239L97.311,42.22c2.06-2.059,3.19-4.847,3.19-7.774
			s-1.13-5.696-3.19-7.759l-6.546-6.55c-2.059-2.059-4.802-3.197-7.727-3.197c-2.927,0-5.672,1.13-7.73,3.189L3.189,92.241
			C1.122,94.308-0.008,97.061,0,99.989c-0.008,2.945,1.122,5.699,3.189,7.763l72.119,72.119c2.059,2.057,4.802,3.189,7.73,3.189
			c2.925,0,5.668-1.133,7.727-3.189l6.546-6.55c2.06-2.055,3.19-4.8,3.19-7.727c0-2.925-1.13-5.525-3.19-7.582l-42.546-42.4h134.143
			c6.028,0,11.093-5.195,11.093-11.22v-9.263C200,89.105,194.785,84.316,188.758,84.316z"/>
	</g>
</g>
</svg>
