<?xml version="1.0" encoding="utf-8"?>
<!-- Generator: Adobe Illustrator 17.0.0, SVG Export Plug-In . SVG Version: 6.00 Build 0)  -->
<!DOCTYPE svg PUBLIC "-//W3C//DTD SVG 1.1//EN" "http://www.w3.org/Graphics/SVG/1.1/DTD/svg11.dtd">
<svg version="1.1" id="Capa_1" xmlns="http://www.w3.org/2000/svg" xmlns:xlink="http://www.w3.org/1999/xlink" x="0px" y="0px"
	 width="200px" height="200px" viewBox="0 0 200 200" enable-background="new 0 0 200 200" xml:space="preserve">
<g>
	<g>
		<path fill="#FFFFFF" d="M176.562,15.625h-9.375V0h-15.625v15.625H48.438V0H32.812v15.625h-9.375C10.514,15.625,0,26.139,0,39.062
			v137.5C0,189.486,10.514,200,23.438,200h153.125C189.486,200,200,189.486,200,176.562v-137.5
			C200,26.139,189.486,15.625,176.562,15.625z M184.375,176.562c0,4.308-3.505,7.812-7.812,7.812H23.438
			c-4.308,0-7.812-3.505-7.812-7.812V73.438h168.75V176.562z M184.375,57.812H15.625v-18.75c0-4.308,3.505-7.812,7.812-7.812h9.375
			v15.625h15.625V31.25h103.125v15.625h15.625V31.25h9.375c4.308,0,7.812,3.505,7.812,7.812V57.812z"/>
	</g>
</g>
<g>
	<g>
		<rect x="29.688" y="89.844" fill="#FFFFFF" width="15.625" height="15.625"/>
	</g>
</g>
<g>
	<g>
		<rect x="60.938" y="89.844" fill="#FFFFFF" width="15.625" height="15.625"/>
	</g>
</g>
<g>
	<g>
		<rect x="92.188" y="89.844" fill="#FFFFFF" width="15.625" height="15.625"/>
	</g>
</g>
<g>
	<g>
		<rect x="123.438" y="89.844" fill="#FFFFFF" width="15.625" height="15.625"/>
	</g>
</g>
<g>
	<g>
		<rect x="154.688" y="89.844" fill="#FFFFFF" width="15.625" height="15.625"/>
	</g>
</g>
<g>
	<g>
		<rect x="29.688" y="121.094" fill="#FFFFFF" width="15.625" height="15.625"/>
	</g>
</g>
<g>
	<g>
		<rect x="60.938" y="121.094" fill="#FFFFFF" width="15.625" height="15.625"/>
	</g>
</g>
<g>
	<g>
		<rect x="92.188" y="121.094" fill="#FFFFFF" width="15.625" height="15.625"/>
	</g>
</g>
<g>
	<g>
		<rect x="123.438" y="121.094" fill="#FFFFFF" width="15.625" height="15.625"/>
	</g>
</g>
<g>
	<g>
		<rect x="29.688" y="152.344" fill="#FFFFFF" width="15.625" height="15.625"/>
	</g>
</g>
<g>
	<g>
		<rect x="60.938" y="152.344" fill="#FFFFFF" width="15.625" height="15.625"/>
	</g>
</g>
<g>
	<g>
		<rect x="92.188" y="152.344" fill="#FFFFFF" width="15.625" height="15.625"/>
	</g>
</g>
<g>
	<g>
		<rect x="123.438" y="152.344" fill="#FFFFFF" width="15.625" height="15.625"/>
	</g>
</g>
<g>
	<g>
		<rect x="154.688" y="121.094" fill="#FFFFFF" width="15.625" height="15.625"/>
	</g>
</g>
</svg>
