<?xml version="1.0" encoding="utf-8"?>
<!-- Generator: Adobe Illustrator 17.0.0, SVG Export Plug-In . SVG Version: 6.00 Build 0)  -->
<!DOCTYPE svg PUBLIC "-//W3C//DTD SVG 1.1//EN" "http://www.w3.org/Graphics/SVG/1.1/DTD/svg11.dtd">
<svg version="1.1" id="Calque_1" xmlns="http://www.w3.org/2000/svg" xmlns:xlink="http://www.w3.org/1999/xlink" x="0px" y="0px"
	 width="512px" height="512px" viewBox="0 0 512 512" enable-background="new 0 0 512 512" xml:space="preserve">
<g>
	<path d="M340.48,256.016L498.873,97.622c17.501-17.501,17.501-45.874,0-63.348l-21.116-21.116
		c-17.506-17.506-45.88-17.506-63.353,0L256.016,171.547L97.622,13.126c-17.501-17.501-45.874-17.501-63.348,0L13.126,34.242
		c-17.501,17.506-17.501,45.88,0,63.353l158.421,158.421L13.158,414.404c-17.506,17.506-17.506,45.88,0,63.353l21.116,21.116
		c17.501,17.501,45.874,17.501,63.348,0L256.016,340.48l158.388,158.394c17.506,17.501,45.88,17.501,63.353,0l21.116-21.116
		c17.501-17.506,17.501-45.88,0-63.353L340.48,256.016z"/>
</g>
</svg>
