<?xml version="1.0" encoding="utf-8"?>
<!-- Generator: Adobe Illustrator 17.0.0, SVG Export Plug-In . SVG Version: 6.00 Build 0)  -->
<!DOCTYPE svg PUBLIC "-//W3C//DTD SVG 1.1//EN" "http://www.w3.org/Graphics/SVG/1.1/DTD/svg11.dtd">
<svg version="1.1" id="Capa_1" xmlns="http://www.w3.org/2000/svg" xmlns:xlink="http://www.w3.org/1999/xlink" x="0px" y="0px"
	 width="200px" height="200px" viewBox="0 0 200 200" enable-background="new 0 0 200 200" xml:space="preserve">
<g>
	<g>
		<path fill="#FFFFFF" d="M99.668,183.057H24.917c-4.585,0-8.305-3.721-8.305-8.305V25.249c0-4.585,3.721-8.305,8.305-8.305h74.751
			c4.593,0,8.305-3.712,8.305-8.305s-3.713-8.306-8.305-8.306H24.917C11.179,0.332,0,11.512,0,25.249v149.502
			c0,13.738,11.179,24.917,24.917,24.917h74.751c4.593,0,8.305-3.712,8.305-8.305S104.261,183.057,99.668,183.057z"/>
	</g>
</g>
<g>
	<g>
		<path fill="#FFFFFF" d="M197.525,94.086l-50.498-49.834c-3.256-3.223-8.521-3.181-11.744,0.083s-3.189,8.521,0.083,11.744
			l36.088,35.614H74.751c-4.593,0-8.305,3.713-8.305,8.305c0,4.593,3.713,8.306,8.305,8.306h96.703l-36.088,35.614
			c-3.272,3.223-3.297,8.48-0.083,11.744c1.628,1.645,3.771,2.475,5.914,2.475c2.11,0,4.219-0.797,5.83-2.392l50.498-49.834
			c1.578-1.561,2.475-3.688,2.475-5.914C200,97.774,199.111,95.656,197.525,94.086z"/>
	</g>
</g>
</svg>
