<?xml version="1.0" encoding="utf-8"?>
<!-- Generator: Adobe Illustrator 17.0.0, SVG Export Plug-In . SVG Version: 6.00 Build 0)  -->
<!DOCTYPE svg PUBLIC "-//W3C//DTD SVG 1.1//EN" "http://www.w3.org/Graphics/SVG/1.1/DTD/svg11.dtd">
<svg version="1.1" id="Calque_1" xmlns="http://www.w3.org/2000/svg" xmlns:xlink="http://www.w3.org/1999/xlink" x="0px" y="0px"
	 width="200px" height="200px" viewBox="0 0 200 200" enable-background="new 0 0 200 200" xml:space="preserve">
<path d="M96.575,96.341c13.235,0,24.695-4.747,34.061-14.113c9.363-9.364,14.111-20.822,14.111-34.059
	c0-13.232-4.747-24.692-14.113-34.059C121.268,4.747,109.809,0,96.575,0C83.338,0,71.88,4.747,62.516,14.111
	S48.403,34.935,48.403,48.169c0,13.237,4.749,24.696,14.113,34.061C71.883,91.592,83.342,96.341,96.575,96.341z M70.804,22.398
	C77.99,15.213,86.419,11.72,96.575,11.72c10.155,0,18.585,3.493,25.772,10.678c7.185,7.187,10.68,15.617,10.68,25.771
	c0,10.156-3.494,18.585-10.68,25.772c-7.187,7.187-15.617,10.68-25.772,10.68c-10.153,0-18.582-3.494-25.771-10.68
	c-7.187-7.185-10.681-15.616-10.681-25.772C60.123,38.016,63.617,29.585,70.804,22.398z"/>
<path d="M180.863,153.79c-0.27-3.897-0.816-8.148-1.62-12.637c-0.812-4.523-1.857-8.798-3.108-12.706
	c-1.294-4.039-3.05-8.028-5.225-11.85c-2.254-3.967-4.903-7.422-7.875-10.265c-3.108-2.974-6.914-5.365-11.314-7.109
	c-4.385-1.735-9.245-2.614-14.444-2.614c-2.042,0-4.016,0.838-7.829,3.32c-2.347,1.53-5.092,3.3-8.156,5.258
	c-2.62,1.669-6.169,3.233-10.553,4.649c-4.277,1.384-8.62,2.086-12.907,2.086c-4.285,0-8.627-0.702-12.907-2.086
	c-4.379-1.414-7.93-2.979-10.545-4.648c-3.035-1.939-5.782-3.709-8.163-5.261c-3.81-2.483-5.785-3.32-7.826-3.32
	c-5.2,0-10.059,0.88-14.442,2.617c-4.398,1.741-8.205,4.132-11.316,7.109c-2.972,2.844-5.621,6.297-7.874,10.263
	c-2.171,3.822-3.929,7.809-5.223,11.851c-1.25,3.908-2.295,8.182-3.107,12.704c-0.806,4.483-1.35,8.736-1.62,12.642
	c-0.266,3.819-0.4,7.794-0.4,11.81c0,10.44,3.319,18.892,9.863,25.125c6.464,6.151,15.015,9.27,25.417,9.27h96.301
	c10.399,0,18.95-3.119,25.415-9.27c6.546-6.229,9.865-14.684,9.865-25.127C181.266,161.573,181.13,157.599,180.863,153.79z
	 M163.321,182.238c-4.271,4.065-9.941,6.041-17.335,6.041h-96.3c-7.396,0-13.066-1.976-17.335-6.039
	c-4.189-3.987-6.224-9.43-6.224-16.635c0-3.748,0.124-7.448,0.371-11c0.241-3.485,0.734-7.314,1.465-11.382
	c0.722-4.018,1.64-7.788,2.733-11.201c1.048-3.273,2.478-6.514,4.251-9.636c1.692-2.975,3.639-5.528,5.788-7.585
	c2.01-1.924,4.543-3.499,7.527-4.68c2.76-1.093,5.862-1.691,9.23-1.781c0.41,0.218,1.141,0.635,2.325,1.407
	c2.409,1.57,5.186,3.362,8.257,5.322c3.461,2.206,7.919,4.199,13.246,5.919c5.446,1.761,11,2.655,16.513,2.655
	s11.069-0.894,16.512-2.653c5.331-1.723,9.788-3.714,13.254-5.923c3.142-2.008,5.841-3.748,8.25-5.319
	c1.184-0.771,1.915-1.189,2.325-1.407c3.369,0.09,6.471,0.688,9.233,1.781c2.983,1.181,5.516,2.757,7.526,4.68
	c2.148,2.055,4.095,4.608,5.788,7.587c1.775,3.12,3.206,6.363,4.253,9.633c1.094,3.418,2.014,7.187,2.734,11.201
	c0.729,4.076,1.224,7.906,1.465,11.385v0.003c0.249,3.538,0.374,7.237,0.375,10.995C169.545,172.812,167.51,178.253,163.321,182.238
	z"/>
</svg>
