<?xml version="1.0" encoding="utf-8"?>
<!-- Generator: Adobe Illustrator 17.0.0, SVG Export Plug-In . SVG Version: 6.00 Build 0)  -->
<!DOCTYPE svg PUBLIC "-//W3C//DTD SVG 1.1//EN" "http://www.w3.org/Graphics/SVG/1.1/DTD/svg11.dtd">
<svg version="1.1" id="Calque_1" xmlns="http://www.w3.org/2000/svg" xmlns:xlink="http://www.w3.org/1999/xlink" x="0px" y="0px"
	 width="512px" height="512px" viewBox="0 0 512 512" enable-background="new 0 0 512 512" xml:space="preserve">
<path fill="#FFFFFF" d="M76,240c12.102,0,23.055-4.855,31.148-12.652l44.402,22.199C151.328,251.355,151,253.133,151,255
	c0,24.812,20.188,45,45,45s45-20.188,45-45c0-6.926-1.703-13.41-4.512-19.277l60.234-60.234C302.59,178.297,309.074,180,316,180
	c24.812,0,45-20.188,45-45c0-4.672-0.918-9.09-2.246-13.328L411.09,82.43C418.23,87.199,426.789,90,436,90c24.812,0,45-20.188,45-45
	S460.812,0,436,0s-45,20.188-45,45c0,4.672,0.918,9.09,2.246,13.328L340.91,97.57C333.77,92.801,325.211,90,316,90
	c-24.812,0-45,20.188-45,45c0,6.926,1.703,13.41,4.512,19.277l-60.234,60.234C209.41,211.703,202.926,210,196,210
	c-12.102,0-23.055,4.855-31.148,12.652l-44.402-22.199c0.223-1.809,0.551-3.586,0.551-5.453c0-24.812-20.188-45-45-45
	s-45,20.188-45,45S51.188,240,76,240z"/>
<path fill="#FFFFFF" d="M497,482h-16V165c0-8.289-6.711-15-15-15h-60c-8.289,0-15,6.711-15,15v317h-30V255c0-8.289-6.711-15-15-15
	h-60c-8.289,0-15,6.711-15,15v227h-30V375c0-8.289-6.711-15-15-15h-60c-8.289,0-15,6.711-15,15v107h-30V315c0-8.289-6.711-15-15-15
	H46c-8.289,0-15,6.711-15,15v167H15c-8.289,0-15,6.711-15,15s6.711,15,15,15h482c8.289,0,15-6.711,15-15S505.289,482,497,482z"/>
</svg>
