<?xml version="1.0" encoding="utf-8"?>
<!-- Generator: Adobe Illustrator 17.0.0, SVG Export Plug-In . SVG Version: 6.00 Build 0)  -->
<!DOCTYPE svg PUBLIC "-//W3C//DTD SVG 1.1//EN" "http://www.w3.org/Graphics/SVG/1.1/DTD/svg11.dtd">
<svg version="1.1" id="Capa_1" xmlns="http://www.w3.org/2000/svg" xmlns:xlink="http://www.w3.org/1999/xlink" x="0px" y="0px"
	 width="200px" height="200px" viewBox="0 0 200 200" enable-background="new 0 0 200 200" xml:space="preserve">
<g>
	<g>
		<path fill="#FFFFFF" d="M198.779,186.996l-58.099-58.099c11.02-13.604,17.653-30.9,17.653-49.73
			C158.334,35.515,122.819,0,79.167,0S0,35.515,0,79.167s35.515,79.167,79.167,79.167c18.831,0,36.126-6.634,49.73-17.653
			l58.099,58.099c1.628,1.627,4.265,1.627,5.893,0l5.891-5.891C200.407,191.261,200.407,188.623,198.779,186.996z M79.167,141.667
			c-34.465,0-62.5-28.036-62.5-62.5s28.036-62.5,62.5-62.5s62.5,28.036,62.5,62.5S113.631,141.667,79.167,141.667z"/>
	</g>
</g>
</svg>
