<?xml version="1.0" encoding="utf-8"?>
<!-- Generator: Adobe Illustrator 17.0.0, SVG Export Plug-In . SVG Version: 6.00 Build 0)  -->
<!DOCTYPE svg PUBLIC "-//W3C//DTD SVG 1.1//EN" "http://www.w3.org/Graphics/SVG/1.1/DTD/svg11.dtd">
<svg version="1.1" id="Layer_1" xmlns="http://www.w3.org/2000/svg" xmlns:xlink="http://www.w3.org/1999/xlink" x="0px" y="0px"
	 width="200px" height="200px" viewBox="0 0 200 200" enable-background="new 0 0 200 200" xml:space="preserve">
<g>
	<g>
		<path fill="#FFFFFF" d="M195.845,149.98l-70.65-129.873c-11.351-19.11-39.022-19.135-50.388,0L4.159,149.98
			c-11.604,19.527,2.445,44.254,25.188,44.254H170.65C193.375,194.235,207.448,169.527,195.845,149.98z M100,170.797
			c-6.46,0-11.719-5.259-11.719-11.719c0-6.46,5.259-11.719,11.719-11.719s11.719,5.259,11.719,11.719
			C111.719,165.539,106.46,170.797,100,170.797z M111.719,123.922c0,6.46-5.259,11.719-11.719,11.719s-11.719-5.259-11.719-11.719
			V65.329c0-6.46,5.259-11.719,11.719-11.719s11.719,5.259,11.719,11.719V123.922z"/>
	</g>
</g>
</svg>
